<mxfile host="app.diagrams.net" agent="Mozilla/5.0 (Windows NT 10.0; Win64; x64) AppleWebKit/537.36 (KHTML, like Gecko) Chrome/131.0.0.0 Safari/537.36" version="25.0.3">
  <diagram name="Halaman-1" id="_-vYKvOru1S-jPDjzz6S">
    <mxGraphModel dx="1075" dy="471" grid="1" gridSize="10" guides="1" tooltips="1" connect="1" arrows="1" fold="1" page="1" pageScale="1" pageWidth="827" pageHeight="1169" math="0" shadow="0">
      <root>
        <mxCell id="0" />
        <mxCell id="1" parent="0" />
        <mxCell id="YQQ7s3msNO7k90xP5W8E-27" value="" style="rounded=0;whiteSpace=wrap;html=1;" vertex="1" parent="1">
          <mxGeometry x="40" y="1500" width="940" height="420" as="geometry" />
        </mxCell>
        <mxCell id="RiuoPPPnBQfamdxfIw6q-43" value="" style="rounded=0;whiteSpace=wrap;html=1;" parent="1" vertex="1">
          <mxGeometry x="30" y="960" width="1070" height="460" as="geometry" />
        </mxCell>
        <mxCell id="0jna-_hNtsZIUJI4xat9-23" value="" style="rounded=0;whiteSpace=wrap;html=1;" parent="1" vertex="1">
          <mxGeometry x="30" y="550" width="620" height="370" as="geometry" />
        </mxCell>
        <mxCell id="7yoTWhICMEyp_RRiTiZr-18" value="" style="whiteSpace=wrap;html=1;aspect=fixed;" parent="1" vertex="1">
          <mxGeometry x="100" y="70" width="430" height="430" as="geometry" />
        </mxCell>
        <mxCell id="7yoTWhICMEyp_RRiTiZr-2" value="Studi Literatur" style="rounded=0;whiteSpace=wrap;html=1;" parent="1" vertex="1">
          <mxGeometry x="140" y="240" width="120" height="40" as="geometry" />
        </mxCell>
        <mxCell id="7yoTWhICMEyp_RRiTiZr-3" value="Praproses Data" style="rounded=0;whiteSpace=wrap;html=1;" parent="1" vertex="1">
          <mxGeometry x="140" y="400" width="120" height="40" as="geometry" />
        </mxCell>
        <mxCell id="7yoTWhICMEyp_RRiTiZr-5" value="Klasifikasi SVM" style="rounded=0;whiteSpace=wrap;html=1;" parent="1" vertex="1">
          <mxGeometry x="370" y="220" width="120" height="40" as="geometry" />
        </mxCell>
        <mxCell id="7yoTWhICMEyp_RRiTiZr-6" value="Evaluasi Hasil Klasifikasi" style="rounded=0;whiteSpace=wrap;html=1;" parent="1" vertex="1">
          <mxGeometry x="370" y="300" width="120" height="40" as="geometry" />
        </mxCell>
        <mxCell id="7yoTWhICMEyp_RRiTiZr-7" value="Ekstraksi Fitur GLCM" style="rounded=0;whiteSpace=wrap;html=1;" parent="1" vertex="1">
          <mxGeometry x="370" y="140" width="120" height="40" as="geometry" />
        </mxCell>
        <mxCell id="7yoTWhICMEyp_RRiTiZr-8" value="Pengumpulan Data" style="rounded=0;whiteSpace=wrap;html=1;" parent="1" vertex="1">
          <mxGeometry x="140" y="320" width="120" height="40" as="geometry" />
        </mxCell>
        <mxCell id="7yoTWhICMEyp_RRiTiZr-11" value="" style="endArrow=classic;html=1;rounded=0;exitX=0.5;exitY=1;exitDx=0;exitDy=0;entryX=0.5;entryY=0;entryDx=0;entryDy=0;" parent="1" source="0jna-_hNtsZIUJI4xat9-2" target="7yoTWhICMEyp_RRiTiZr-2" edge="1">
          <mxGeometry width="50" height="50" relative="1" as="geometry">
            <mxPoint x="200" y="180" as="sourcePoint" />
            <mxPoint x="440" y="260" as="targetPoint" />
          </mxGeometry>
        </mxCell>
        <mxCell id="7yoTWhICMEyp_RRiTiZr-12" value="" style="endArrow=classic;html=1;rounded=0;exitX=0.5;exitY=1;exitDx=0;exitDy=0;entryX=0.5;entryY=0;entryDx=0;entryDy=0;" parent="1" source="7yoTWhICMEyp_RRiTiZr-2" target="7yoTWhICMEyp_RRiTiZr-8" edge="1">
          <mxGeometry width="50" height="50" relative="1" as="geometry">
            <mxPoint x="210" y="200" as="sourcePoint" />
            <mxPoint x="210" y="240" as="targetPoint" />
          </mxGeometry>
        </mxCell>
        <mxCell id="7yoTWhICMEyp_RRiTiZr-13" value="" style="endArrow=classic;html=1;rounded=0;exitX=0.5;exitY=1;exitDx=0;exitDy=0;entryX=0.5;entryY=0;entryDx=0;entryDy=0;" parent="1" source="7yoTWhICMEyp_RRiTiZr-8" target="7yoTWhICMEyp_RRiTiZr-3" edge="1">
          <mxGeometry width="50" height="50" relative="1" as="geometry">
            <mxPoint x="210" y="280" as="sourcePoint" />
            <mxPoint x="210" y="320" as="targetPoint" />
          </mxGeometry>
        </mxCell>
        <mxCell id="7yoTWhICMEyp_RRiTiZr-14" value="" style="endArrow=classic;html=1;rounded=0;exitX=1;exitY=0.5;exitDx=0;exitDy=0;entryX=0;entryY=0.5;entryDx=0;entryDy=0;" parent="1" source="7yoTWhICMEyp_RRiTiZr-3" target="7yoTWhICMEyp_RRiTiZr-7" edge="1">
          <mxGeometry width="50" height="50" relative="1" as="geometry">
            <mxPoint x="220" y="290" as="sourcePoint" />
            <mxPoint x="220" y="330" as="targetPoint" />
            <Array as="points">
              <mxPoint x="320" y="420" />
              <mxPoint x="320" y="160" />
            </Array>
          </mxGeometry>
        </mxCell>
        <mxCell id="7yoTWhICMEyp_RRiTiZr-15" value="" style="endArrow=classic;html=1;rounded=0;exitX=0.5;exitY=1;exitDx=0;exitDy=0;" parent="1" source="7yoTWhICMEyp_RRiTiZr-7" target="7yoTWhICMEyp_RRiTiZr-5" edge="1">
          <mxGeometry width="50" height="50" relative="1" as="geometry">
            <mxPoint x="230" y="300" as="sourcePoint" />
            <mxPoint x="230" y="340" as="targetPoint" />
          </mxGeometry>
        </mxCell>
        <mxCell id="7yoTWhICMEyp_RRiTiZr-16" value="" style="endArrow=classic;html=1;rounded=0;exitX=0.5;exitY=1;exitDx=0;exitDy=0;entryX=0.5;entryY=0;entryDx=0;entryDy=0;" parent="1" source="7yoTWhICMEyp_RRiTiZr-5" target="7yoTWhICMEyp_RRiTiZr-6" edge="1">
          <mxGeometry width="50" height="50" relative="1" as="geometry">
            <mxPoint x="240" y="310" as="sourcePoint" />
            <mxPoint x="240" y="350" as="targetPoint" />
          </mxGeometry>
        </mxCell>
        <mxCell id="7yoTWhICMEyp_RRiTiZr-17" value="" style="endArrow=classic;html=1;rounded=0;exitX=0.5;exitY=1;exitDx=0;exitDy=0;entryX=0.5;entryY=0;entryDx=0;entryDy=0;" parent="1" source="7yoTWhICMEyp_RRiTiZr-6" target="0jna-_hNtsZIUJI4xat9-3" edge="1">
          <mxGeometry width="50" height="50" relative="1" as="geometry">
            <mxPoint x="250" y="320" as="sourcePoint" />
            <mxPoint x="430" y="380" as="targetPoint" />
          </mxGeometry>
        </mxCell>
        <mxCell id="0jna-_hNtsZIUJI4xat9-2" value="&lt;font style=&quot;font-size: 18px;&quot;&gt;Mulai&lt;/font&gt;" style="ellipse;whiteSpace=wrap;html=1;" parent="1" vertex="1">
          <mxGeometry x="140" y="110" width="120" height="80" as="geometry" />
        </mxCell>
        <mxCell id="0jna-_hNtsZIUJI4xat9-3" value="&lt;font style=&quot;font-size: 18px;&quot;&gt;Selesai&lt;/font&gt;" style="ellipse;whiteSpace=wrap;html=1;" parent="1" vertex="1">
          <mxGeometry x="370" y="380" width="120" height="80" as="geometry" />
        </mxCell>
        <mxCell id="0jna-_hNtsZIUJI4xat9-7" value="&lt;font style=&quot;font-size: 18px;&quot;&gt;Selesai&lt;/font&gt;" style="ellipse;whiteSpace=wrap;html=1;" parent="1" vertex="1">
          <mxGeometry x="100" y="810" width="120" height="80" as="geometry" />
        </mxCell>
        <mxCell id="0jna-_hNtsZIUJI4xat9-8" value="&lt;font style=&quot;font-size: 18px;&quot;&gt;Mulai&lt;/font&gt;" style="ellipse;whiteSpace=wrap;html=1;" parent="1" vertex="1">
          <mxGeometry x="100" y="600" width="120" height="80" as="geometry" />
        </mxCell>
        <mxCell id="0jna-_hNtsZIUJI4xat9-11" value="Konversi Citra Ke Grayscale" style="rounded=0;whiteSpace=wrap;html=1;" parent="1" vertex="1">
          <mxGeometry x="460" y="620" width="120" height="40" as="geometry" />
        </mxCell>
        <mxCell id="0jna-_hNtsZIUJI4xat9-12" value="Image Deduplication" style="rounded=0;whiteSpace=wrap;html=1;" parent="1" vertex="1">
          <mxGeometry x="280" y="620" width="120" height="40" as="geometry" />
        </mxCell>
        <mxCell id="0jna-_hNtsZIUJI4xat9-13" value="Resize Image" style="rounded=0;whiteSpace=wrap;html=1;" parent="1" vertex="1">
          <mxGeometry x="460" y="730" width="120" height="40" as="geometry" />
        </mxCell>
        <mxCell id="0jna-_hNtsZIUJI4xat9-15" value="Median Filter" style="rounded=0;whiteSpace=wrap;html=1;" parent="1" vertex="1">
          <mxGeometry x="280" y="730" width="120" height="40" as="geometry" />
        </mxCell>
        <mxCell id="0jna-_hNtsZIUJI4xat9-17" value="" style="endArrow=classic;html=1;rounded=0;exitX=1;exitY=0.5;exitDx=0;exitDy=0;entryX=0;entryY=0.5;entryDx=0;entryDy=0;" parent="1" source="0jna-_hNtsZIUJI4xat9-8" target="0jna-_hNtsZIUJI4xat9-12" edge="1">
          <mxGeometry width="50" height="50" relative="1" as="geometry">
            <mxPoint x="210" y="200" as="sourcePoint" />
            <mxPoint x="210" y="250" as="targetPoint" />
          </mxGeometry>
        </mxCell>
        <mxCell id="0jna-_hNtsZIUJI4xat9-18" value="" style="endArrow=classic;html=1;rounded=0;exitX=1;exitY=0.5;exitDx=0;exitDy=0;entryX=0;entryY=0.5;entryDx=0;entryDy=0;" parent="1" source="0jna-_hNtsZIUJI4xat9-12" target="0jna-_hNtsZIUJI4xat9-11" edge="1">
          <mxGeometry width="50" height="50" relative="1" as="geometry">
            <mxPoint x="250" y="650" as="sourcePoint" />
            <mxPoint x="290" y="650" as="targetPoint" />
          </mxGeometry>
        </mxCell>
        <mxCell id="0jna-_hNtsZIUJI4xat9-19" value="" style="endArrow=classic;html=1;rounded=0;entryX=0.5;entryY=0;entryDx=0;entryDy=0;exitX=0.5;exitY=1;exitDx=0;exitDy=0;" parent="1" source="0jna-_hNtsZIUJI4xat9-24" target="0jna-_hNtsZIUJI4xat9-7" edge="1">
          <mxGeometry width="50" height="50" relative="1" as="geometry">
            <mxPoint x="260" y="660" as="sourcePoint" />
            <mxPoint x="300" y="660" as="targetPoint" />
          </mxGeometry>
        </mxCell>
        <mxCell id="0jna-_hNtsZIUJI4xat9-21" value="" style="endArrow=classic;html=1;rounded=0;exitX=0.5;exitY=1;exitDx=0;exitDy=0;entryX=0.5;entryY=0;entryDx=0;entryDy=0;" parent="1" source="0jna-_hNtsZIUJI4xat9-11" target="0jna-_hNtsZIUJI4xat9-13" edge="1">
          <mxGeometry width="50" height="50" relative="1" as="geometry">
            <mxPoint x="280" y="680" as="sourcePoint" />
            <mxPoint x="320" y="680" as="targetPoint" />
          </mxGeometry>
        </mxCell>
        <mxCell id="0jna-_hNtsZIUJI4xat9-22" value="" style="endArrow=classic;html=1;rounded=0;exitX=0;exitY=0.5;exitDx=0;exitDy=0;entryX=1;entryY=0.5;entryDx=0;entryDy=0;" parent="1" source="0jna-_hNtsZIUJI4xat9-13" target="0jna-_hNtsZIUJI4xat9-15" edge="1">
          <mxGeometry width="50" height="50" relative="1" as="geometry">
            <mxPoint x="290" y="690" as="sourcePoint" />
            <mxPoint x="400" y="750" as="targetPoint" />
          </mxGeometry>
        </mxCell>
        <mxCell id="0jna-_hNtsZIUJI4xat9-24" value="Hasil Praproses Data" style="rounded=0;whiteSpace=wrap;html=1;" parent="1" vertex="1">
          <mxGeometry x="100" y="730" width="120" height="40" as="geometry" />
        </mxCell>
        <mxCell id="0jna-_hNtsZIUJI4xat9-25" value="" style="endArrow=classic;html=1;rounded=0;exitX=0;exitY=0.5;exitDx=0;exitDy=0;entryX=1;entryY=0.5;entryDx=0;entryDy=0;" parent="1" source="0jna-_hNtsZIUJI4xat9-15" target="0jna-_hNtsZIUJI4xat9-24" edge="1">
          <mxGeometry width="50" height="50" relative="1" as="geometry">
            <mxPoint x="470" y="760" as="sourcePoint" />
            <mxPoint x="380" y="760" as="targetPoint" />
          </mxGeometry>
        </mxCell>
        <mxCell id="RiuoPPPnBQfamdxfIw6q-3" value="&lt;font style=&quot;font-size: 18px;&quot;&gt;Mulai&lt;/font&gt;" style="ellipse;whiteSpace=wrap;html=1;" parent="1" vertex="1">
          <mxGeometry x="90" y="1000" width="120" height="80" as="geometry" />
        </mxCell>
        <mxCell id="RiuoPPPnBQfamdxfIw6q-4" value="&lt;font style=&quot;font-size: 18px;&quot;&gt;Selesai&lt;/font&gt;" style="ellipse;whiteSpace=wrap;html=1;" parent="1" vertex="1">
          <mxGeometry x="230" y="1290" width="120" height="80" as="geometry" />
        </mxCell>
        <mxCell id="RiuoPPPnBQfamdxfIw6q-36" style="edgeStyle=none;curved=1;rounded=0;orthogonalLoop=1;jettySize=auto;html=1;exitX=1;exitY=0.5;exitDx=0;exitDy=0;entryX=0;entryY=0.5;entryDx=0;entryDy=0;fontSize=12;startSize=8;endSize=8;" parent="1" source="RiuoPPPnBQfamdxfIw6q-5" target="RiuoPPPnBQfamdxfIw6q-26" edge="1">
          <mxGeometry relative="1" as="geometry" />
        </mxCell>
        <mxCell id="RiuoPPPnBQfamdxfIw6q-5" value="Tentukan Jarak (d) dan Arah (&lt;span style=&quot;font-size:12.0pt;line-height:107%;&lt;br/&gt;font-family:&amp;quot;Times New Roman&amp;quot;,serif;mso-fareast-font-family:Calibri;mso-fareast-theme-font:&lt;br/&gt;minor-latin;mso-ansi-language:EN-ID;mso-fareast-language:EN-US;mso-bidi-language:&lt;br/&gt;AR-SA&quot;&gt;0°, 45°, 90° dan 135°&lt;/span&gt;" style="rounded=0;whiteSpace=wrap;html=1;" parent="1" vertex="1">
          <mxGeometry x="440" y="995" width="140" height="90" as="geometry" />
        </mxCell>
        <mxCell id="RiuoPPPnBQfamdxfIw6q-35" style="edgeStyle=none;curved=1;rounded=0;orthogonalLoop=1;jettySize=auto;html=1;exitX=1;exitY=0.5;exitDx=0;exitDy=0;entryX=0;entryY=0.5;entryDx=0;entryDy=0;fontSize=12;startSize=8;endSize=8;" parent="1" source="RiuoPPPnBQfamdxfIw6q-20" target="RiuoPPPnBQfamdxfIw6q-5" edge="1">
          <mxGeometry relative="1" as="geometry" />
        </mxCell>
        <mxCell id="RiuoPPPnBQfamdxfIw6q-20" value="Hasil Praproses Data" style="rounded=0;whiteSpace=wrap;html=1;" parent="1" vertex="1">
          <mxGeometry x="270" y="995" width="140" height="90" as="geometry" />
        </mxCell>
        <mxCell id="FMCPNA3hya65jA6GNQzw-1" style="edgeStyle=none;curved=1;rounded=0;orthogonalLoop=1;jettySize=auto;html=1;exitX=0;exitY=0.5;exitDx=0;exitDy=0;fontSize=12;startSize=8;endSize=8;" parent="1" source="RiuoPPPnBQfamdxfIw6q-22" target="RiuoPPPnBQfamdxfIw6q-25" edge="1">
          <mxGeometry relative="1" as="geometry" />
        </mxCell>
        <mxCell id="RiuoPPPnBQfamdxfIw6q-22" value="Normalisasi Matriks GLCM" style="rounded=0;whiteSpace=wrap;html=1;" parent="1" vertex="1">
          <mxGeometry x="630" y="1150" width="140" height="90" as="geometry" />
        </mxCell>
        <mxCell id="RiuoPPPnBQfamdxfIw6q-39" style="edgeStyle=none;curved=1;rounded=0;orthogonalLoop=1;jettySize=auto;html=1;exitX=0;exitY=0.5;exitDx=0;exitDy=0;entryX=1;entryY=0.5;entryDx=0;entryDy=0;fontSize=12;startSize=8;endSize=8;" parent="1" source="RiuoPPPnBQfamdxfIw6q-23" target="RiuoPPPnBQfamdxfIw6q-22" edge="1">
          <mxGeometry relative="1" as="geometry" />
        </mxCell>
        <mxCell id="RiuoPPPnBQfamdxfIw6q-23" value="Masukan Nilai Pasangan Intensitas Kedalam Matriks GLCM" style="rounded=0;whiteSpace=wrap;html=1;" parent="1" vertex="1">
          <mxGeometry x="827" y="1150" width="140" height="90" as="geometry" />
        </mxCell>
        <mxCell id="RiuoPPPnBQfamdxfIw6q-38" style="edgeStyle=none;curved=1;rounded=0;orthogonalLoop=1;jettySize=auto;html=1;exitX=0.5;exitY=1;exitDx=0;exitDy=0;fontSize=12;startSize=8;endSize=8;" parent="1" source="RiuoPPPnBQfamdxfIw6q-24" target="RiuoPPPnBQfamdxfIw6q-23" edge="1">
          <mxGeometry relative="1" as="geometry" />
        </mxCell>
        <mxCell id="RiuoPPPnBQfamdxfIw6q-24" value="Hitung Kemmunculan Pasangan Intensitas Sesuai Jarak dan Arah" style="rounded=0;whiteSpace=wrap;html=1;" parent="1" vertex="1">
          <mxGeometry x="827" y="995" width="140" height="90" as="geometry" />
        </mxCell>
        <mxCell id="FMCPNA3hya65jA6GNQzw-2" style="edgeStyle=none;curved=1;rounded=0;orthogonalLoop=1;jettySize=auto;html=1;exitX=0;exitY=0.5;exitDx=0;exitDy=0;entryX=1;entryY=0.5;entryDx=0;entryDy=0;fontSize=12;startSize=8;endSize=8;" parent="1" source="RiuoPPPnBQfamdxfIw6q-25" target="RiuoPPPnBQfamdxfIw6q-27" edge="1">
          <mxGeometry relative="1" as="geometry" />
        </mxCell>
        <mxCell id="RiuoPPPnBQfamdxfIw6q-25" value="Hitung statistik fitur GLCM (Kontras, Korelasi, Energi dan Homogenitas)" style="rounded=0;whiteSpace=wrap;html=1;" parent="1" vertex="1">
          <mxGeometry x="420" y="1150" width="140" height="90" as="geometry" />
        </mxCell>
        <mxCell id="RiuoPPPnBQfamdxfIw6q-37" style="edgeStyle=none;curved=1;rounded=0;orthogonalLoop=1;jettySize=auto;html=1;exitX=1;exitY=0.5;exitDx=0;exitDy=0;fontSize=12;startSize=8;endSize=8;" parent="1" source="RiuoPPPnBQfamdxfIw6q-26" target="RiuoPPPnBQfamdxfIw6q-24" edge="1">
          <mxGeometry relative="1" as="geometry" />
        </mxCell>
        <mxCell id="RiuoPPPnBQfamdxfIw6q-26" value="Buat Matriks GLCM berdasarkan Level Intensitas" style="rounded=0;whiteSpace=wrap;html=1;" parent="1" vertex="1">
          <mxGeometry x="630" y="995" width="140" height="90" as="geometry" />
        </mxCell>
        <mxCell id="RiuoPPPnBQfamdxfIw6q-27" value="Hasil Fitur GLCM" style="rounded=0;whiteSpace=wrap;html=1;" parent="1" vertex="1">
          <mxGeometry x="220" y="1150" width="140" height="90" as="geometry" />
        </mxCell>
        <mxCell id="RiuoPPPnBQfamdxfIw6q-28" value="" style="endArrow=classic;html=1;rounded=0;exitX=1;exitY=0.5;exitDx=0;exitDy=0;entryX=0;entryY=0.5;entryDx=0;entryDy=0;" parent="1" source="RiuoPPPnBQfamdxfIw6q-3" target="RiuoPPPnBQfamdxfIw6q-20" edge="1">
          <mxGeometry width="50" height="50" relative="1" as="geometry">
            <mxPoint x="170" y="780" as="sourcePoint" />
            <mxPoint x="220" y="1120" as="targetPoint" />
          </mxGeometry>
        </mxCell>
        <mxCell id="RiuoPPPnBQfamdxfIw6q-41" style="edgeStyle=none;curved=1;rounded=0;orthogonalLoop=1;jettySize=auto;html=1;exitX=0.5;exitY=1;exitDx=0;exitDy=0;fontSize=12;startSize=8;endSize=8;" parent="1" source="RiuoPPPnBQfamdxfIw6q-27" edge="1">
          <mxGeometry relative="1" as="geometry">
            <mxPoint x="290" y="1294" as="targetPoint" />
          </mxGeometry>
        </mxCell>
        <mxCell id="YQQ7s3msNO7k90xP5W8E-17" value="" style="edgeStyle=orthogonalEdgeStyle;rounded=0;orthogonalLoop=1;jettySize=auto;html=1;" edge="1" parent="1" source="YQQ7s3msNO7k90xP5W8E-1" target="YQQ7s3msNO7k90xP5W8E-11">
          <mxGeometry relative="1" as="geometry" />
        </mxCell>
        <mxCell id="YQQ7s3msNO7k90xP5W8E-1" value="&lt;font style=&quot;font-size: 18px;&quot;&gt;Mulai&lt;/font&gt;" style="ellipse;whiteSpace=wrap;html=1;" vertex="1" parent="1">
          <mxGeometry x="140" y="1545" width="120" height="80" as="geometry" />
        </mxCell>
        <mxCell id="YQQ7s3msNO7k90xP5W8E-2" value="&lt;font style=&quot;font-size: 18px;&quot;&gt;Selesai&lt;/font&gt;" style="ellipse;whiteSpace=wrap;html=1;" vertex="1" parent="1">
          <mxGeometry x="270" y="1765" width="120" height="80" as="geometry" />
        </mxCell>
        <mxCell id="YQQ7s3msNO7k90xP5W8E-22" value="" style="edgeStyle=orthogonalEdgeStyle;rounded=0;orthogonalLoop=1;jettySize=auto;html=1;entryX=0.5;entryY=0;entryDx=0;entryDy=0;" edge="1" parent="1" source="YQQ7s3msNO7k90xP5W8E-10" target="YQQ7s3msNO7k90xP5W8E-16">
          <mxGeometry relative="1" as="geometry">
            <mxPoint x="760" y="1585" as="targetPoint" />
          </mxGeometry>
        </mxCell>
        <mxCell id="YQQ7s3msNO7k90xP5W8E-10" value="Pilih Kernel SVM&lt;br&gt;(linear, polynomial, RBF, atau sigmoid)" style="rounded=0;whiteSpace=wrap;html=1;" vertex="1" parent="1">
          <mxGeometry x="540" y="1540" width="140" height="90" as="geometry" />
        </mxCell>
        <mxCell id="YQQ7s3msNO7k90xP5W8E-20" value="" style="edgeStyle=orthogonalEdgeStyle;rounded=0;orthogonalLoop=1;jettySize=auto;html=1;" edge="1" parent="1" source="YQQ7s3msNO7k90xP5W8E-11" target="YQQ7s3msNO7k90xP5W8E-10">
          <mxGeometry relative="1" as="geometry" />
        </mxCell>
        <mxCell id="YQQ7s3msNO7k90xP5W8E-11" value="Hasil Fitur GLCM" style="rounded=0;whiteSpace=wrap;html=1;" vertex="1" parent="1">
          <mxGeometry x="320" y="1540" width="140" height="90" as="geometry" />
        </mxCell>
        <mxCell id="YQQ7s3msNO7k90xP5W8E-25" value="" style="edgeStyle=orthogonalEdgeStyle;rounded=0;orthogonalLoop=1;jettySize=auto;html=1;" edge="1" parent="1" source="YQQ7s3msNO7k90xP5W8E-13" target="YQQ7s3msNO7k90xP5W8E-15">
          <mxGeometry relative="1" as="geometry" />
        </mxCell>
        <mxCell id="YQQ7s3msNO7k90xP5W8E-13" value="Data Testing &amp;amp; Data Uji" style="rounded=0;whiteSpace=wrap;html=1;" vertex="1" parent="1">
          <mxGeometry x="710" y="1760" width="140" height="90" as="geometry" />
        </mxCell>
        <mxCell id="YQQ7s3msNO7k90xP5W8E-26" value="" style="edgeStyle=orthogonalEdgeStyle;rounded=0;orthogonalLoop=1;jettySize=auto;html=1;" edge="1" parent="1" source="YQQ7s3msNO7k90xP5W8E-15" target="YQQ7s3msNO7k90xP5W8E-2">
          <mxGeometry relative="1" as="geometry" />
        </mxCell>
        <mxCell id="YQQ7s3msNO7k90xP5W8E-15" value="Hasil Klasifikasi" style="rounded=0;whiteSpace=wrap;html=1;" vertex="1" parent="1">
          <mxGeometry x="470" y="1760" width="140" height="90" as="geometry" />
        </mxCell>
        <mxCell id="YQQ7s3msNO7k90xP5W8E-24" value="" style="edgeStyle=orthogonalEdgeStyle;rounded=0;orthogonalLoop=1;jettySize=auto;html=1;" edge="1" parent="1" source="YQQ7s3msNO7k90xP5W8E-16" target="YQQ7s3msNO7k90xP5W8E-13">
          <mxGeometry relative="1" as="geometry">
            <mxPoint x="780" y="1715" as="targetPoint" />
          </mxGeometry>
        </mxCell>
        <mxCell id="YQQ7s3msNO7k90xP5W8E-16" value="Parameter SVM" style="rounded=0;whiteSpace=wrap;html=1;" vertex="1" parent="1">
          <mxGeometry x="710" y="1610" width="140" height="90" as="geometry" />
        </mxCell>
      </root>
    </mxGraphModel>
  </diagram>
</mxfile>
